<svg width="60" height="57" viewBox="0 0 60 57" fill="none" xmlns="http://www.w3.org/2000/svg">
<path d="M44.1064 10.9442C44.3318 11.6355 44.9292 12.1525 45.6482 12.2602C53.2783 13.4024 59.1295 19.9839 59.1295 27.9321C59.1295 35.871 53.2916 42.4466 45.6744 43.6C44.9521 43.7093 44.3535 44.2317 44.1317 44.9279C42.4705 50.1371 37.5917 53.9099 31.8317 53.9099C25.9414 53.9099 20.9726 49.9645 19.4242 44.572L19.4214 44.5764C18.1014 39.9054 16.0059 35.6137 9.15356 32.8261C8.40406 32.4895 8.56135 31.5794 9.37482 31.6948C12.2004 32.095 15.7055 33.2239 19.3591 35.0439C19.7305 35.2288 20.1542 35.1336 20.4155 34.8657C20.4882 34.7273 20.5404 34.7417 20.6178 34.6061C20.6253 34.5741 20.6312 34.541 20.6352 34.5072L20.6411 34.4569C20.6929 34.0168 20.5248 33.5745 20.1474 33.3419C17.3897 31.6445 11.328 30.0839 2.96547 29.8824C0.908494 29.8824 0.0479852 29.0605 0 28.0436C0.0479852 27.0264 0.599958 26.2047 2.96547 26.2047C11.328 26.003 17.3897 24.4424 20.1474 22.745C20.5248 22.5126 20.6929 22.0703 20.6411 21.63L20.6352 21.5799C20.5628 20.964 19.8911 20.615 19.336 20.8914C15.6826 22.7114 12.1018 23.78 9.27619 24.1802C8.46271 24.2954 8.30543 23.3855 9.05492 23.0489C16.7828 19.5785 18.2199 15.1308 19.0501 12.5609C19.1473 12.2601 19.2362 11.985 19.3257 11.7402C20.7519 6.1631 25.8102 2.03984 31.8317 2.03984C37.5629 2.03984 42.4218 5.77518 44.1064 10.9442Z" fill="url(#paint0_radial_1_90)"/>
<path d="M44.1064 10.9442C44.3318 11.6355 44.9292 12.1525 45.6482 12.2602C53.2783 13.4024 59.1295 19.9839 59.1295 27.9321C59.1295 35.871 53.2916 42.4466 45.6744 43.6C44.9521 43.7093 44.3535 44.2317 44.1317 44.9279C42.4705 50.1371 37.5917 53.9099 31.8317 53.9099C25.9414 53.9099 20.9726 49.9645 19.4242 44.572L19.4214 44.5764C18.1014 39.9054 16.0059 35.6137 9.15356 32.8261C8.40406 32.4895 8.56135 31.5794 9.37482 31.6948C12.2004 32.095 15.7055 33.2239 19.3591 35.0439C19.7305 35.2288 20.1542 35.1336 20.4155 34.8657C20.4882 34.7273 20.5404 34.7417 20.6178 34.6061C20.6253 34.5741 20.6312 34.541 20.6352 34.5072L20.6411 34.4569C20.6929 34.0168 20.5248 33.5745 20.1474 33.3419C17.3897 31.6445 11.328 30.0839 2.96547 29.8824C0.908494 29.8824 0.0479852 29.0605 0 28.0436C0.0479852 27.0264 0.599958 26.2047 2.96547 26.2047C11.328 26.003 17.3897 24.4424 20.1474 22.745C20.5248 22.5126 20.6929 22.0703 20.6411 21.63L20.6352 21.5799C20.5628 20.964 19.8911 20.615 19.336 20.8914C15.6826 22.7114 12.1018 23.78 9.27619 24.1802C8.46271 24.2954 8.30543 23.3855 9.05492 23.0489C16.7828 19.5785 18.2199 15.1308 19.0501 12.5609C19.1473 12.2601 19.2362 11.985 19.3257 11.7402C20.7519 6.1631 25.8102 2.03984 31.8317 2.03984C37.5629 2.03984 42.4218 5.77518 44.1064 10.9442Z" fill="url(#paint1_linear_1_90)"/>
<path d="M44.1064 10.9442C44.3318 11.6355 44.9292 12.1525 45.6482 12.2602C53.2783 13.4024 59.1295 19.9839 59.1295 27.9321C59.1295 35.871 53.2916 42.4466 45.6744 43.6C44.9521 43.7093 44.3535 44.2317 44.1317 44.9279C42.4705 50.1371 37.5917 53.9099 31.8317 53.9099C25.9414 53.9099 20.9726 49.9645 19.4242 44.572L19.4214 44.5764C18.1014 39.9054 16.0059 35.6137 9.15356 32.8261C8.40406 32.4895 8.56135 31.5794 9.37482 31.6948C12.2004 32.095 15.7055 33.2239 19.3591 35.0439C19.7305 35.2288 20.1542 35.1336 20.4155 34.8657C20.4882 34.7273 20.5404 34.7417 20.6178 34.6061C20.6253 34.5741 20.6312 34.541 20.6352 34.5072L20.6411 34.4569C20.6929 34.0168 20.5248 33.5745 20.1474 33.3419C17.3897 31.6445 11.328 30.0839 2.96547 29.8824C0.908494 29.8824 0.0479852 29.0605 0 28.0436C0.0479852 27.0264 0.599958 26.2047 2.96547 26.2047C11.328 26.003 17.3897 24.4424 20.1474 22.745C20.5248 22.5126 20.6929 22.0703 20.6411 21.63L20.6352 21.5799C20.5628 20.964 19.8911 20.615 19.336 20.8914C15.6826 22.7114 12.1018 23.78 9.27619 24.1802C8.46271 24.2954 8.30543 23.3855 9.05492 23.0489C16.7828 19.5785 18.2199 15.1308 19.0501 12.5609C19.1473 12.2601 19.2362 11.985 19.3257 11.7402C20.7519 6.1631 25.8102 2.03984 31.8317 2.03984C37.5629 2.03984 42.4218 5.77518 44.1064 10.9442Z" fill="url(#paint2_radial_1_90)"/>
<path d="M44.1064 10.9442C44.3318 11.6355 44.9292 12.1525 45.6482 12.2602C53.2783 13.4024 59.1295 19.9839 59.1295 27.9321C59.1295 35.871 53.2916 42.4466 45.6744 43.6C44.9521 43.7093 44.3535 44.2317 44.1317 44.9279C42.4705 50.1371 37.5917 53.9099 31.8317 53.9099C25.9414 53.9099 20.9726 49.9645 19.4242 44.572L19.4214 44.5764C18.1014 39.9054 16.0059 35.6137 9.15356 32.8261C8.40406 32.4895 8.56135 31.5794 9.37482 31.6948C12.2004 32.095 15.7055 33.2239 19.3591 35.0439C19.7305 35.2288 20.1542 35.1336 20.4155 34.8657C20.4882 34.7273 20.5404 34.7417 20.6178 34.6061C20.6253 34.5741 20.6312 34.541 20.6352 34.5072L20.6411 34.4569C20.6929 34.0168 20.5248 33.5745 20.1474 33.3419C17.3897 31.6445 11.328 30.0839 2.96547 29.8824C0.908494 29.8824 0.0479852 29.0605 0 28.0436C0.0479852 27.0264 0.599958 26.2047 2.96547 26.2047C11.328 26.003 17.3897 24.4424 20.1474 22.745C20.5248 22.5126 20.6929 22.0703 20.6411 21.63L20.6352 21.5799C20.5628 20.964 19.8911 20.615 19.336 20.8914C15.6826 22.7114 12.1018 23.78 9.27619 24.1802C8.46271 24.2954 8.30543 23.3855 9.05492 23.0489C16.7828 19.5785 18.2199 15.1308 19.0501 12.5609C19.1473 12.2601 19.2362 11.985 19.3257 11.7402C20.7519 6.1631 25.8102 2.03984 31.8317 2.03984C37.5629 2.03984 42.4218 5.77518 44.1064 10.9442Z" fill="url(#paint3_radial_1_90)"/>
<path d="M44.1064 10.9442C44.3318 11.6355 44.9292 12.1525 45.6482 12.2602C53.2783 13.4024 59.1295 19.9839 59.1295 27.9321C59.1295 35.871 53.2916 42.4466 45.6744 43.6C44.9521 43.7093 44.3535 44.2317 44.1317 44.9279C42.4705 50.1371 37.5917 53.9099 31.8317 53.9099C25.9414 53.9099 20.9726 49.9645 19.4242 44.572L19.4214 44.5764C18.1014 39.9054 16.0059 35.6137 9.15356 32.8261C8.40406 32.4895 8.56135 31.5794 9.37482 31.6948C12.2004 32.095 15.7055 33.2239 19.3591 35.0439C19.7305 35.2288 20.1542 35.1336 20.4155 34.8657C20.4882 34.7273 20.5404 34.7417 20.6178 34.6061C20.6253 34.5741 20.6312 34.541 20.6352 34.5072L20.6411 34.4569C20.6929 34.0168 20.5248 33.5745 20.1474 33.3419C17.3897 31.6445 11.328 30.0839 2.96547 29.8824C0.908494 29.8824 0.0479852 29.0605 0 28.0436C0.0479852 27.0264 0.599958 26.2047 2.96547 26.2047C11.328 26.003 17.3897 24.4424 20.1474 22.745C20.5248 22.5126 20.6929 22.0703 20.6411 21.63L20.6352 21.5799C20.5628 20.964 19.8911 20.615 19.336 20.8914C15.6826 22.7114 12.1018 23.78 9.27619 24.1802C8.46271 24.2954 8.30543 23.3855 9.05492 23.0489C16.7828 19.5785 18.2199 15.1308 19.0501 12.5609C19.1473 12.2601 19.2362 11.985 19.3257 11.7402C20.7519 6.1631 25.8102 2.03984 31.8317 2.03984C37.5629 2.03984 42.4218 5.77518 44.1064 10.9442Z" fill="url(#paint4_linear_1_90)"/>
<path d="M44.1064 10.9442C44.3318 11.6355 44.9292 12.1525 45.6482 12.2602C53.2783 13.4024 59.1295 19.9839 59.1295 27.9321C59.1295 35.871 53.2916 42.4466 45.6744 43.6C44.9521 43.7093 44.3535 44.2317 44.1317 44.9279C42.4705 50.1371 37.5917 53.9099 31.8317 53.9099C25.9414 53.9099 20.9726 49.9645 19.4242 44.572L19.4214 44.5764C18.1014 39.9054 16.0059 35.6137 9.15356 32.8261C8.40406 32.4895 8.56135 31.5794 9.37482 31.6948C12.2004 32.095 15.7055 33.2239 19.3591 35.0439C19.7305 35.2288 20.1542 35.1336 20.4155 34.8657C20.4882 34.7273 20.5404 34.7417 20.6178 34.6061C20.6253 34.5741 20.6312 34.541 20.6352 34.5072L20.6411 34.4569C20.6929 34.0168 20.5248 33.5745 20.1474 33.3419C17.3897 31.6445 11.328 30.0839 2.96547 29.8824C0.908494 29.8824 0.0479852 29.0605 0 28.0436C0.0479852 27.0264 0.599958 26.2047 2.96547 26.2047C11.328 26.003 17.3897 24.4424 20.1474 22.745C20.5248 22.5126 20.6929 22.0703 20.6411 21.63L20.6352 21.5799C20.5628 20.964 19.8911 20.615 19.336 20.8914C15.6826 22.7114 12.1018 23.78 9.27619 24.1802C8.46271 24.2954 8.30543 23.3855 9.05492 23.0489C16.7828 19.5785 18.2199 15.1308 19.0501 12.5609C19.1473 12.2601 19.2362 11.985 19.3257 11.7402C20.7519 6.1631 25.8102 2.03984 31.8317 2.03984C37.5629 2.03984 42.4218 5.77518 44.1064 10.9442Z" fill="url(#paint5_radial_1_90)"/>
<path d="M44.1064 10.9442C44.3318 11.6355 44.9292 12.1525 45.6482 12.2602C53.2783 13.4024 59.1295 19.9839 59.1295 27.9321C59.1295 35.871 53.2916 42.4466 45.6744 43.6C44.9521 43.7093 44.3535 44.2317 44.1317 44.9279C42.4705 50.1371 37.5917 53.9099 31.8317 53.9099C25.9414 53.9099 20.9726 49.9645 19.4242 44.572L19.4214 44.5764C18.1014 39.9054 16.0059 35.6137 9.15356 32.8261C8.40406 32.4895 8.56135 31.5794 9.37482 31.6948C12.2004 32.095 15.7055 33.2239 19.3591 35.0439C19.7305 35.2288 20.1542 35.1336 20.4155 34.8657C20.4882 34.7273 20.5404 34.7417 20.6178 34.6061C20.6253 34.5741 20.6312 34.541 20.6352 34.5072L20.6411 34.4569C20.6929 34.0168 20.5248 33.5745 20.1474 33.3419C17.3897 31.6445 11.328 30.0839 2.96547 29.8824C0.908494 29.8824 0.0479852 29.0605 0 28.0436C0.0479852 27.0264 0.599958 26.2047 2.96547 26.2047C11.328 26.003 17.3897 24.4424 20.1474 22.745C20.5248 22.5126 20.6929 22.0703 20.6411 21.63L20.6352 21.5799C20.5628 20.964 19.8911 20.615 19.336 20.8914C15.6826 22.7114 12.1018 23.78 9.27619 24.1802C8.46271 24.2954 8.30543 23.3855 9.05492 23.0489C16.7828 19.5785 18.2199 15.1308 19.0501 12.5609C19.1473 12.2601 19.2362 11.985 19.3257 11.7402C20.7519 6.1631 25.8102 2.03984 31.8317 2.03984C37.5629 2.03984 42.4218 5.77518 44.1064 10.9442Z" fill="url(#paint6_linear_1_90)"/>
<path d="M20.5873 33.9067C22.7854 31.2167 21.4823 27.1549 18.1295 26.2461L13.6615 25.0352C10.7555 25.6632 7.1483 26.104 2.96547 26.2047C0.599958 26.2047 0.0479852 27.0266 0 28.0436C0.0479852 29.0608 0.908494 29.8824 2.96547 29.8824C11.328 30.0839 17.3897 31.6448 20.1474 33.3421C20.3631 33.4749 20.5103 33.6763 20.5873 33.9067Z" fill="url(#paint7_radial_1_90)"/>
<path d="M51.7479 41.3311C49.9386 42.4766 47.8812 43.2659 45.6744 43.6C44.9521 43.7093 44.3535 44.2317 44.1317 44.9279C43.6812 46.3402 42.9943 47.6473 42.1173 48.8018C39.1563 46.1693 35.4948 42.2581 32.1231 37.5057C33.9607 38.6389 43.3328 41.7851 51.7479 41.3311Z" fill="url(#paint8_radial_1_90)"/>
<path d="M54.647 12.8218C57.4303 12.8218 59.6866 10.5655 59.6866 7.78224C59.6866 4.99894 57.4303 2.74263 54.647 2.74263C51.8637 2.74263 49.6073 4.99894 49.6073 7.78224C49.6073 10.5655 51.8637 12.8218 54.647 12.8218Z" fill="url(#paint9_radial_1_90)"/>
<path d="M54.647 12.8218C57.4303 12.8218 59.6866 10.5655 59.6866 7.78224C59.6866 4.99894 57.4303 2.74263 54.647 2.74263C51.8637 2.74263 49.6073 4.99894 49.6073 7.78224C49.6073 10.5655 51.8637 12.8218 54.647 12.8218Z" fill="url(#paint10_radial_1_90)"/>
<path d="M54.647 12.8218C57.4303 12.8218 59.6866 10.5655 59.6866 7.78224C59.6866 4.99894 57.4303 2.74263 54.647 2.74263C51.8637 2.74263 49.6073 4.99894 49.6073 7.78224C49.6073 10.5655 51.8637 12.8218 54.647 12.8218Z" fill="url(#paint11_radial_1_90)"/>
<path d="M44.2765 5.72527C45.8575 5.72527 47.1391 4.44362 47.1391 2.86263C47.1391 1.28165 45.8575 0 44.2765 0C42.6955 0 41.4138 1.28165 41.4138 2.86263C41.4138 4.44362 42.6955 5.72527 44.2765 5.72527Z" fill="url(#paint12_radial_1_90)"/>
<path d="M44.2765 5.72527C45.8575 5.72527 47.1391 4.44362 47.1391 2.86263C47.1391 1.28165 45.8575 0 44.2765 0C42.6955 0 41.4138 1.28165 41.4138 2.86263C41.4138 4.44362 42.6955 5.72527 44.2765 5.72527Z" fill="url(#paint13_radial_1_90)"/>
<path d="M44.2765 5.72527C45.8575 5.72527 47.1391 4.44362 47.1391 2.86263C47.1391 1.28165 45.8575 0 44.2765 0C42.6955 0 41.4138 1.28165 41.4138 2.86263C41.4138 4.44362 42.6955 5.72527 44.2765 5.72527Z" fill="url(#paint14_radial_1_90)"/>
<path d="M45.682 56.0526C47.2441 56.0526 48.5104 54.7863 48.5104 53.2243C48.5104 51.6622 47.2441 50.3959 45.682 50.3959C44.12 50.3959 42.8537 51.6622 42.8537 53.2243C42.8537 54.7863 44.12 56.0526 45.682 56.0526Z" fill="url(#paint15_radial_1_90)"/>
<path d="M45.682 56.0526C47.2441 56.0526 48.5104 54.7863 48.5104 53.2243C48.5104 51.6622 47.2441 50.3959 45.682 50.3959C44.12 50.3959 42.8537 51.6622 42.8537 53.2243C42.8537 54.7863 44.12 56.0526 45.682 56.0526Z" fill="url(#paint16_radial_1_90)"/>
<path d="M31.2661 25.5722C37.0775 25.5722 41.7885 20.8612 41.7885 15.0498C41.7885 9.23844 37.0775 4.52739 31.2661 4.52739C25.4547 4.52739 20.7437 9.23844 20.7437 15.0498C20.7437 20.8612 25.4547 25.5722 31.2661 25.5722Z" fill="url(#paint17_radial_1_90)"/>
<path d="M31.2661 25.5722C37.0775 25.5722 41.7885 20.8612 41.7885 15.0498C41.7885 9.23844 37.0775 4.52739 31.2661 4.52739C25.4547 4.52739 20.7437 9.23844 20.7437 15.0498C20.7437 20.8612 25.4547 25.5722 31.2661 25.5722Z" fill="url(#paint18_radial_1_90)"/>
<path d="M31.2661 25.5722C37.0775 25.5722 41.7885 20.8612 41.7885 15.0498C41.7885 9.23844 37.0775 4.52739 31.2661 4.52739C25.4547 4.52739 20.7437 9.23844 20.7437 15.0498C20.7437 20.8612 25.4547 25.5722 31.2661 25.5722Z" fill="url(#paint19_radial_1_90)"/>
<path d="M30.9613 51.6463C37.0222 51.6463 41.9356 46.7329 41.9356 40.672C41.9356 34.611 37.0222 29.6977 30.9613 29.6977C24.9004 29.6977 19.987 34.611 19.987 40.672C19.987 46.7329 24.9004 51.6463 30.9613 51.6463Z" fill="url(#paint20_radial_1_90)"/>
<path d="M30.9613 51.6463C37.0222 51.6463 41.9356 46.7329 41.9356 40.672C41.9356 34.611 37.0222 29.6977 30.9613 29.6977C24.9004 29.6977 19.987 34.611 19.987 40.672C19.987 46.7329 24.9004 51.6463 30.9613 51.6463Z" fill="url(#paint21_radial_1_90)"/>
<path d="M57.184 27.5124C58.1097 33.8031 53.0165 41.7236 44.2765 42.3053C32.9459 43.0596 25.198 35.6203 25.198 27.5124C25.198 19.4042 34.523 11.725 44.2765 13.0963C51.4051 13.0963 57.184 20.3837 57.184 27.5124Z" fill="url(#paint22_linear_1_90)"/>
<path d="M57.184 27.5124C58.1097 33.8031 53.0165 41.7236 44.2765 42.3053C32.9459 43.0596 25.198 35.6203 25.198 27.5124C25.198 19.4042 34.523 11.725 44.2765 13.0963C51.4051 13.0963 57.184 20.3837 57.184 27.5124Z" fill="url(#paint23_radial_1_90)"/>
<path d="M57.184 27.5124C58.1097 33.8031 53.0165 41.7236 44.2765 42.3053C32.9459 43.0596 25.198 35.6203 25.198 27.5124C25.198 19.4042 34.523 11.725 44.2765 13.0963C51.4051 13.0963 57.184 20.3837 57.184 27.5124Z" fill="url(#paint24_radial_1_90)"/>
<path d="M57.184 27.5124C58.1097 33.8031 53.0165 41.7236 44.2765 42.3053C32.9459 43.0596 25.198 35.6203 25.198 27.5124C25.198 19.4042 34.523 11.725 44.2765 13.0963C51.4051 13.0963 57.184 20.3837 57.184 27.5124Z" fill="url(#paint25_radial_1_90)"/>
<path d="M29.4491 33.2546C31.3231 35.3115 35.6885 40.6597 43.7793 42.648" stroke="url(#paint26_linear_1_90)" stroke-width="2.19411" stroke-linecap="round"/>
<path d="M2.50266 27.7693C4.5825 27.7234 9.72953 27.4812 13.6789 26.8778" stroke="#EEE2E3" stroke-width="0.548528" stroke-linecap="round"/>
<defs>
<radialGradient id="paint0_radial_1_90" cx="0" cy="0" r="1" gradientUnits="userSpaceOnUse" gradientTransform="translate(43.848 11.0391) rotate(137.364) scale(42.3136 39.6943)">
<stop stop-color="white"/>
<stop offset="1" stop-color="#DCC4E7"/>
</radialGradient>
<linearGradient id="paint1_linear_1_90" x1="6.82232" y1="35.3116" x2="32.6032" y2="35.3116" gradientUnits="userSpaceOnUse">
<stop stop-color="#C4B5BE"/>
<stop offset="1" stop-color="#C4B5BE" stop-opacity="0"/>
</linearGradient>
<radialGradient id="paint2_radial_1_90" cx="0" cy="0" r="1" gradientUnits="userSpaceOnUse" gradientTransform="translate(18.2043 59.8582) rotate(-52.485) scale(26.7973 42.3222)">
<stop stop-color="#9B91F1"/>
<stop offset="1" stop-color="#9B91F1" stop-opacity="0"/>
</radialGradient>
<radialGradient id="paint3_radial_1_90" cx="0" cy="0" r="1" gradientUnits="userSpaceOnUse" gradientTransform="translate(12.8561 8.29648) rotate(39.0355) scale(19.5964 20.515)">
<stop stop-color="#B3A8A8"/>
<stop offset="1" stop-color="#B3A8A8" stop-opacity="0"/>
</radialGradient>
<linearGradient id="paint4_linear_1_90" x1="62.635" y1="56.1556" x2="49.3923" y2="36.9589" gradientUnits="userSpaceOnUse">
<stop offset="0.102847" stop-color="#B6A8F2"/>
<stop offset="1" stop-color="#B6A8F2" stop-opacity="0"/>
</linearGradient>
<radialGradient id="paint5_radial_1_90" cx="0" cy="0" r="1" gradientUnits="userSpaceOnUse" gradientTransform="translate(11.3477 37.2998) rotate(-49.1347) scale(4.03462 12.2574)">
<stop stop-color="#B6A8F2"/>
<stop offset="1" stop-color="#A998F0" stop-opacity="0"/>
</radialGradient>
<linearGradient id="paint6_linear_1_90" x1="15.4616" y1="9.39353" x2="19.5756" y2="13.0961" gradientUnits="userSpaceOnUse">
<stop stop-color="#AEA3A5"/>
<stop offset="1" stop-color="#AEA3A5" stop-opacity="0"/>
</linearGradient>
<radialGradient id="paint7_radial_1_90" cx="0" cy="0" r="1" gradientUnits="userSpaceOnUse" gradientTransform="translate(13.2675 32.9803) rotate(-75.749) scale(3.6209 18.2299)">
<stop offset="0.102847" stop-color="#B6A8F2"/>
<stop offset="1" stop-color="#B6A8F2" stop-opacity="0"/>
</radialGradient>
<radialGradient id="paint8_radial_1_90" cx="0" cy="0" r="1" gradientUnits="userSpaceOnUse" gradientTransform="translate(48.6959 45.9833) rotate(-160.701) scale(14.2177 2.69886)">
<stop stop-color="#ADA0F1"/>
<stop offset="1" stop-color="#ADA0F1" stop-opacity="0"/>
</radialGradient>
<radialGradient id="paint9_radial_1_90" cx="0" cy="0" r="1" gradientUnits="userSpaceOnUse" gradientTransform="translate(56.1212 4.25108) rotate(129.611) scale(7.7431 8.66674)">
<stop stop-color="white"/>
<stop offset="1" stop-color="#DED0E4"/>
</radialGradient>
<radialGradient id="paint10_radial_1_90" cx="0" cy="0" r="1" gradientUnits="userSpaceOnUse" gradientTransform="translate(48.9903 15.7701) rotate(-45.1731) scale(8.02404 7.40681)">
<stop stop-color="#FFF3C7"/>
<stop offset="1" stop-color="#FFF3C7" stop-opacity="0"/>
</radialGradient>
<radialGradient id="paint11_radial_1_90" cx="0" cy="0" r="1" gradientUnits="userSpaceOnUse" gradientTransform="translate(44.5336 0.548519) rotate(33.7643) scale(14.681 11.2385)">
<stop offset="0.0416667" stop-color="#AFADA8"/>
<stop offset="0.885417" stop-color="#AFADA8" stop-opacity="0"/>
</radialGradient>
<radialGradient id="paint12_radial_1_90" cx="0" cy="0" r="1" gradientUnits="userSpaceOnUse" gradientTransform="translate(45.1138 0.856844) rotate(127.235) scale(6.11485 6.84427)">
<stop stop-color="white"/>
<stop offset="1" stop-color="#DED0E4"/>
</radialGradient>
<radialGradient id="paint13_radial_1_90" cx="0" cy="0" r="1" gradientUnits="userSpaceOnUse" gradientTransform="translate(41.0632 7.40001) rotate(-45.1731) scale(4.55787 4.20727)">
<stop stop-color="#FFF3C7"/>
<stop offset="1" stop-color="#FFF3C7" stop-opacity="0"/>
</radialGradient>
<radialGradient id="paint14_radial_1_90" cx="0" cy="0" r="1" gradientUnits="userSpaceOnUse" gradientTransform="translate(38.5316 -1.2463) rotate(30.0783) scale(8.91671 5.77613)">
<stop offset="0.0416667" stop-color="#AFADA8"/>
<stop offset="0.885417" stop-color="#AFADA8" stop-opacity="0"/>
</radialGradient>
<radialGradient id="paint15_radial_1_90" cx="0" cy="0" r="1" gradientUnits="userSpaceOnUse" gradientTransform="translate(47.619 51.4931) rotate(124.086) scale(5.50548 8.37389)">
<stop stop-color="white"/>
<stop offset="1" stop-color="#ADA0F1"/>
</radialGradient>
<radialGradient id="paint16_radial_1_90" cx="0" cy="0" r="1" gradientUnits="userSpaceOnUse" gradientTransform="translate(42.8536 51.0817) rotate(37.136) scale(4.4294 3.39078)">
<stop offset="0.0416667" stop-color="#E5CCEF"/>
<stop offset="0.885417" stop-color="#E5CCEF" stop-opacity="0"/>
</radialGradient>
<radialGradient id="paint17_radial_1_90" cx="0" cy="0" r="1" gradientUnits="userSpaceOnUse" gradientTransform="translate(21.6326 22.4207) rotate(-37.8257) scale(27.9514 21.329)">
<stop offset="0.0571655" stop-color="#CDC7C7"/>
<stop offset="1" stop-color="#CDC7C7" stop-opacity="0"/>
</radialGradient>
<radialGradient id="paint18_radial_1_90" cx="0" cy="0" r="1" gradientUnits="userSpaceOnUse" gradientTransform="translate(20.7436 23.3806) rotate(-48.8194) scale(19.6778 15.7237)">
<stop stop-color="#BEB4E8"/>
<stop offset="1" stop-color="#BEB4E8" stop-opacity="0"/>
</radialGradient>
<radialGradient id="paint19_radial_1_90" cx="0" cy="0" r="1" gradientUnits="userSpaceOnUse" gradientTransform="translate(20.7436 21.0494) rotate(-53.2815) scale(11.12 9.9827)">
<stop stop-color="#A99DCA"/>
<stop offset="1" stop-color="#BEB4E8" stop-opacity="0"/>
</radialGradient>
<radialGradient id="paint20_radial_1_90" cx="0" cy="0" r="1" gradientUnits="userSpaceOnUse" gradientTransform="translate(18.2728 38.534) rotate(26.1018) scale(11.3766 34.0807)">
<stop offset="0.0543407" stop-color="#AEA1BC"/>
<stop offset="1" stop-color="#AEA1BC" stop-opacity="0"/>
</radialGradient>
<radialGradient id="paint21_radial_1_90" cx="0" cy="0" r="1" gradientUnits="userSpaceOnUse" gradientTransform="translate(13.599 35.5849) rotate(28.1115) scale(16.8817 36.7968)">
<stop offset="0.0543407" stop-color="#AEA1BC"/>
<stop offset="1" stop-color="#AEA1BC" stop-opacity="0"/>
</radialGradient>
<linearGradient id="paint22_linear_1_90" x1="39.3226" y1="51.356" x2="47.002" y2="29.6891" gradientUnits="userSpaceOnUse">
<stop offset="0.102847" stop-color="#B6A8F2"/>
<stop offset="1" stop-color="#B6A8F2" stop-opacity="0"/>
</linearGradient>
<radialGradient id="paint23_radial_1_90" cx="0" cy="0" r="1" gradientUnits="userSpaceOnUse" gradientTransform="translate(28.9006 22.284) rotate(21.8014) scale(20.6774 39.1363)">
<stop stop-color="#CDC7C7"/>
<stop offset="1" stop-color="#CDC7C7" stop-opacity="0"/>
</radialGradient>
<radialGradient id="paint24_radial_1_90" cx="0" cy="0" r="1" gradientUnits="userSpaceOnUse" gradientTransform="translate(17.7928 29.9634) scale(18.3757 50.4645)">
<stop stop-color="#AEA1BC"/>
<stop offset="1" stop-color="#AEA1BC" stop-opacity="0"/>
</radialGradient>
<radialGradient id="paint25_radial_1_90" cx="0" cy="0" r="1" gradientUnits="userSpaceOnUse" gradientTransform="translate(59.481 19.5416) rotate(151.579) scale(13.2536 30.0885)">
<stop stop-color="white"/>
<stop offset="1" stop-color="white" stop-opacity="0"/>
</radialGradient>
<linearGradient id="paint26_linear_1_90" x1="39.5969" y1="42.648" x2="28.2834" y2="34.4201" gradientUnits="userSpaceOnUse">
<stop stop-color="#AEA3E4"/>
<stop offset="1" stop-color="#AEA3E4" stop-opacity="0"/>
</linearGradient>
</defs>
</svg>
