<svg width="61" height="48" viewBox="0 0 61 48" fill="none" xmlns="http://www.w3.org/2000/svg">
<path d="M32.4 16.2C32.4 7.25299 25.147 0 16.2 0C7.25299 0 0 7.25299 0 16.2V31.32C0 40.267 7.25299 47.52 16.2 47.52C25.147 47.52 32.4 40.267 32.4 31.32V16.2Z" fill="#D3D3D3"/>
<path d="M32.4 16.2C32.4 7.25299 25.147 0 16.2 0C7.25299 0 0 7.25299 0 16.2V31.32C0 40.267 7.25299 47.52 16.2 47.52C25.147 47.52 32.4 40.267 32.4 31.32V16.2Z" fill="url(#paint0_radial_1_22)"/>
<path d="M32.4 16.2C32.4 7.25299 25.147 0 16.2 0C7.25299 0 0 7.25299 0 16.2V31.32C0 40.267 7.25299 47.52 16.2 47.52C25.147 47.52 32.4 40.267 32.4 31.32V16.2Z" fill="url(#paint1_linear_1_22)"/>
<path d="M32.4 16.2C32.4 7.25299 25.147 0 16.2 0C7.25299 0 0 7.25299 0 16.2V31.32C0 40.267 7.25299 47.52 16.2 47.52C25.147 47.52 32.4 40.267 32.4 31.32V16.2Z" fill="url(#paint2_radial_1_22)"/>
<path d="M32.4 16.2C32.4 7.25299 25.147 0 16.2 0C7.25299 0 0 7.25299 0 16.2V31.32C0 40.267 7.25299 47.52 16.2 47.52C25.147 47.52 32.4 40.267 32.4 31.32V16.2Z" fill="url(#paint3_radial_1_22)"/>
<path d="M32.4 16.2C32.4 7.25299 25.147 0 16.2 0C7.25299 0 0 7.25299 0 16.2V31.32C0 40.267 7.25299 47.52 16.2 47.52C25.147 47.52 32.4 40.267 32.4 31.32V16.2Z" fill="url(#paint4_radial_1_22)"/>
<path d="M32.4 16.2C32.4 7.25299 25.147 0 16.2 0C7.25299 0 0 7.25299 0 16.2V31.32C0 40.267 7.25299 47.52 16.2 47.52C25.147 47.52 32.4 40.267 32.4 31.32V16.2Z" fill="url(#paint5_radial_1_22)"/>
<path d="M32.4 16.2C32.4 7.25299 25.147 0 16.2 0C7.25299 0 0 7.25299 0 16.2V31.32C0 40.267 7.25299 47.52 16.2 47.52C25.147 47.52 32.4 40.267 32.4 31.32V16.2Z" fill="url(#paint6_radial_1_22)"/>
<path d="M31.0465 11.9816C31.0465 10.9463 30.2072 10.1071 29.172 10.1071C28.1367 10.1071 27.2974 10.9463 27.2974 11.9816V33.4309C27.2974 34.4662 28.1367 35.3054 29.172 35.3054C30.2072 35.3054 31.0465 34.4662 31.0465 33.4309V11.9816Z" fill="#6F6873"/>
<path d="M60.48 16.2C60.48 7.25299 53.227 0 44.28 0C35.333 0 28.08 7.25299 28.08 16.2V31.32C28.08 40.267 35.333 47.52 44.28 47.52C53.227 47.52 60.48 40.267 60.48 31.32V16.2Z" fill="url(#paint7_radial_1_22)"/>
<path d="M60.48 16.2C60.48 7.25299 53.227 0 44.28 0C35.333 0 28.08 7.25299 28.08 16.2V31.32C28.08 40.267 35.333 47.52 44.28 47.52C53.227 47.52 60.48 40.267 60.48 31.32V16.2Z" fill="url(#paint8_linear_1_22)"/>
<path d="M60.48 16.2C60.48 7.25299 53.227 0 44.28 0C35.333 0 28.08 7.25299 28.08 16.2V31.32C28.08 40.267 35.333 47.52 44.28 47.52C53.227 47.52 60.48 40.267 60.48 31.32V16.2Z" fill="url(#paint9_radial_1_22)"/>
<path d="M45.36 18.36C45.36 14.1847 41.9753 10.8 37.8 10.8C33.6247 10.8 30.24 14.1847 30.24 18.36V29.16C30.24 33.3353 33.6247 36.72 37.8 36.72C41.9753 36.72 45.36 33.3353 45.36 29.16V18.36Z" fill="url(#paint10_linear_1_22)"/>
<path d="M45.36 18.36C45.36 14.1847 41.9753 10.8 37.8 10.8C33.6247 10.8 30.24 14.1847 30.24 18.36V29.16C30.24 33.3353 33.6247 36.72 37.8 36.72C41.9753 36.72 45.36 33.3353 45.36 29.16V18.36Z" fill="url(#paint11_radial_1_22)"/>
<path d="M17.415 18.36C17.415 14.1847 14.0303 10.8 9.855 10.8C5.67973 10.8 2.295 14.1847 2.295 18.36V29.16C2.295 33.3353 5.67973 36.72 9.855 36.72C14.0303 36.72 17.415 33.3353 17.415 29.16V18.36Z" fill="url(#paint12_linear_1_22)"/>
<path d="M17.415 18.36C17.415 14.1847 14.0303 10.8 9.855 10.8C5.67973 10.8 2.295 14.1847 2.295 18.36V29.16C2.295 33.3353 5.67973 36.72 9.855 36.72C14.0303 36.72 17.415 33.3353 17.415 29.16V18.36Z" fill="url(#paint13_radial_1_22)"/>
<path d="M14.5552 19.1397C15.3575 18.4719 15.3204 17.1045 14.4723 16.0856C13.6242 15.0668 12.2862 14.7822 11.4839 15.4501C10.6816 16.118 10.7187 17.4853 11.5668 18.5042C12.4149 19.523 13.7528 19.8076 14.5552 19.1397Z" fill="url(#paint14_radial_1_22)"/>
<path d="M42.6277 19.1397C43.43 18.4719 43.3929 17.1045 42.5448 16.0856C41.6967 15.0668 40.3587 14.7822 39.5564 15.4501C38.7541 16.118 38.7912 17.4853 39.6393 18.5042C40.4874 19.523 41.8254 19.8076 42.6277 19.1397Z" fill="url(#paint15_radial_1_22)"/>
<defs>
<radialGradient id="paint0_radial_1_22" cx="0" cy="0" r="1" gradientUnits="userSpaceOnUse" gradientTransform="translate(21.6676 11.88) rotate(101.077) scale(45.6708 35.319)">
<stop stop-color="#FAF7FC"/>
<stop offset="0.456846" stop-color="#D8D0DD"/>
<stop offset="0.707884" stop-color="#D0B3E3"/>
<stop offset="1" stop-color="#CFABE4"/>
</radialGradient>
<linearGradient id="paint1_linear_1_22" x1="-6.8175" y1="27.27" x2="14.0032" y2="30.0918" gradientUnits="userSpaceOnUse">
<stop offset="0.399485" stop-color="#9B969E"/>
<stop offset="1" stop-color="#9A959E" stop-opacity="0"/>
</linearGradient>
<radialGradient id="paint2_radial_1_22" cx="0" cy="0" r="1" gradientUnits="userSpaceOnUse" gradientTransform="translate(29.9912 33.5675) rotate(-133.794) scale(43.3352 46.9068)">
<stop offset="0.844296" stop-color="#9A959E" stop-opacity="0"/>
<stop offset="0.948591" stop-color="#949296"/>
</radialGradient>
<radialGradient id="paint3_radial_1_22" cx="0" cy="0" r="1" gradientUnits="userSpaceOnUse" gradientTransform="translate(36.9423 31.4822) rotate(-155.387) scale(18.5414 45.0827)">
<stop offset="0.0216587" stop-color="#D1AFE5"/>
<stop offset="1" stop-color="#D1AFE5" stop-opacity="0"/>
</radialGradient>
<radialGradient id="paint4_radial_1_22" cx="0" cy="0" r="1" gradientUnits="userSpaceOnUse" gradientTransform="translate(30.8599 28.528) rotate(180) scale(11.9909 34.061)">
<stop stop-color="#ABA5B0"/>
<stop offset="1" stop-color="#ABA5B0" stop-opacity="0"/>
</radialGradient>
<radialGradient id="paint5_radial_1_22" cx="0" cy="0" r="1" gradientUnits="userSpaceOnUse" gradientTransform="translate(36.2472 33.3938) rotate(-137.153) scale(16.3548 45.0628)">
<stop stop-color="#B689D0"/>
<stop offset="1" stop-color="#B689D0" stop-opacity="0"/>
</radialGradient>
<radialGradient id="paint6_radial_1_22" cx="0" cy="0" r="1" gradientUnits="userSpaceOnUse" gradientTransform="translate(26.9086 8.78947) rotate(140.964) scale(7.59195 14.4411)">
<stop stop-color="#F3F2F4"/>
<stop offset="1" stop-color="#F3F2F4" stop-opacity="0"/>
</radialGradient>
<radialGradient id="paint7_radial_1_22" cx="0" cy="0" r="1" gradientUnits="userSpaceOnUse" gradientTransform="translate(50.9624 15.12) rotate(103.51) scale(42.7632 33.0705)">
<stop stop-color="#FAF7FC"/>
<stop offset="0.456846" stop-color="#D8D0DD"/>
<stop offset="0.707884" stop-color="#D0B3E3"/>
<stop offset="1" stop-color="#CFABE4"/>
</radialGradient>
<linearGradient id="paint8_linear_1_22" x1="21.2626" y1="27.27" x2="41.7824" y2="29.16" gradientUnits="userSpaceOnUse">
<stop offset="0.212017" stop-color="#9B969E"/>
<stop offset="1" stop-color="#9A959E" stop-opacity="0"/>
</linearGradient>
<radialGradient id="paint9_radial_1_22" cx="0" cy="0" r="1" gradientUnits="userSpaceOnUse" gradientTransform="translate(54.9886 8.78947) rotate(140.964) scale(7.59195 14.4411)">
<stop stop-color="#F3F2F4"/>
<stop offset="1" stop-color="#F3F2F4" stop-opacity="0"/>
</radialGradient>
<linearGradient id="paint10_linear_1_22" x1="37.8" y1="10.8" x2="37.8" y2="36.72" gradientUnits="userSpaceOnUse">
<stop offset="0.354167" stop-color="#232224"/>
<stop offset="1" stop-color="#623C86"/>
</linearGradient>
<radialGradient id="paint11_radial_1_22" cx="0" cy="0" r="1" gradientUnits="userSpaceOnUse" gradientTransform="translate(39.7574 22.41) rotate(90) scale(14.31 4.69547)">
<stop offset="0.354167" stop-color="#443753"/>
<stop offset="1" stop-color="#433750" stop-opacity="0"/>
</radialGradient>
<linearGradient id="paint12_linear_1_22" x1="9.855" y1="10.8" x2="9.855" y2="36.72" gradientUnits="userSpaceOnUse">
<stop offset="0.354167" stop-color="#232224"/>
<stop offset="1" stop-color="#623C86"/>
</linearGradient>
<radialGradient id="paint13_radial_1_22" cx="0" cy="0" r="1" gradientUnits="userSpaceOnUse" gradientTransform="translate(11.8125 22.41) rotate(90) scale(14.31 4.69547)">
<stop offset="0.354167" stop-color="#443753"/>
<stop offset="1" stop-color="#433750" stop-opacity="0"/>
</radialGradient>
<radialGradient id="paint14_radial_1_22" cx="0" cy="0" r="1" gradientUnits="userSpaceOnUse" gradientTransform="translate(11.88 15.8625) rotate(87.7397) scale(5.134 5.40296)">
<stop stop-color="white"/>
<stop offset="1" stop-color="#F4F4F4" stop-opacity="0"/>
</radialGradient>
<radialGradient id="paint15_radial_1_22" cx="0" cy="0" r="1" gradientUnits="userSpaceOnUse" gradientTransform="translate(39.9527 15.8623) rotate(87.7397) scale(5.134 5.40296)">
<stop stop-color="white"/>
<stop offset="1" stop-color="#F4F4F4" stop-opacity="0"/>
</radialGradient>
</defs>
</svg>
